<?xml version="1.0" encoding="utf-8"?>
<!-- Generator: Adobe Illustrator 19.0.0, SVG Export Plug-In . SVG Version: 6.00 Build 0)  -->
<svg version="1.1" id="logo" xmlns="http://www.w3.org/2000/svg" xmlns:xlink="http://www.w3.org/1999/xlink" x="0px" y="0px"
	 viewBox="0 0 184.6078 184.6077" enable-background="new 0 0 184.6078 184.6077" xml:space="preserve">
<path id="XMLID_47_" fill="#434345" d="M92.3039,13.8266c43.3418,0,78.4773,35.1355,78.4773,78.4773
	s-35.1355,78.4773-78.4773,78.4773s-78.4773-35.1355-78.4773-78.4773S48.9621,13.8266,92.3039,13.8266 M92.3039,0
	C41.4073,0,0,41.4074,0,92.3039s41.4073,92.3038,92.3039,92.3038s92.3039-41.4073,92.3039-92.3038S143.2004,0,92.3039,0L92.3039,0z"
	/>
<circle id="XMLID_46_" fill="#67686B" cx="92.3017" cy="92.3018" r="10.8707"/>
<circle id="XMLID_45_" fill="#F15D2A" cx="68.7205" cy="133.0577" r="10.8707"/>
<circle id="XMLID_44_" fill="#CA3A3C" cx="92.3017" cy="146.6884" r="10.8707"/>
<circle id="XMLID_43_" fill="#9E256F" cx="115.8147" cy="133.0577" r="10.8707"/>
<circle id="XMLID_42_" fill="#45B757" cx="92.3017" cy="65.1252" r="10.8707"/>
<circle id="XMLID_41_" fill="#F15D2A" cx="68.7302" cy="105.8902" r="10.8707"/>
<circle id="XMLID_40_" fill="#45B757" cx="68.6926" cy="51.5038" r="10.8707"/>
<circle id="XMLID_39_" fill="#F7941E" cx="45.1212" cy="65.0921" r="10.8707"/>
<circle id="XMLID_38_" fill="#F7941E" cx="68.7302" cy="78.7135" r="10.8707"/>
<circle id="XMLID_37_" fill="#76489D" cx="115.8182" cy="105.8902" r="10.8707"/>
<circle id="XMLID_36_" fill="#CA3A3C" cx="92.3017" cy="119.4785" r="10.8707"/>
<circle id="XMLID_35_" fill="#76489D" cx="139.5197" cy="92.3018" r="10.8707"/>
<circle id="XMLID_34_" fill="#9E256F" cx="139.5197" cy="119.4785" r="10.8707"/>
<circle id="XMLID_33_" fill="#C7602A" cx="45.2907" cy="92.3018" r="10.8707"/>
<circle id="XMLID_32_" fill="#C7602A" cx="45.2907" cy="119.4785" r="10.8707"/>
<circle id="XMLID_31_" fill="#007BC1" cx="115.8182" cy="78.7135" r="10.8707"/>
<circle id="XMLID_30_" fill="#00A89D" cx="92.2092" cy="37.9486" r="10.8707"/>
<circle id="XMLID_29_" fill="#007BC1" cx="139.4272" cy="65.1252" r="10.8707"/>
<circle id="XMLID_28_" fill="#00A89D" cx="115.7257" cy="51.5369" r="10.8707"/>
</svg>
